<svg xmlns="http://www.w3.org/2000/svg" width="48" height="48" viewBox="0 0 24 24" fill="none" stroke="currentColor" stroke-width="2" stroke-linecap="round" stroke-linejoin="round"><rect x="3" y="3" width="3" height="3" /><rect x="8" y="3" width="3" height="3" /><rect x="13" y="3" width="3" height="3" /><rect x="18" y="3" width="3" height="3" /><rect x="3" y="8" width="3" height="3" /><rect x="8" y="8" width="3" height="3" /><rect x="13" y="8" width="3" height="3" /><rect x="18" y="8" width="3" height="3" /><rect x="3" y="13" width="3" height="3" /><rect x="8" y="13" width="3" height="3" /><rect x="13" y="13" width="3" height="3" /><rect x="18" y="13" width="3" height="3" /><rect x="3" y="18" width="3" height="3" /><rect x="8" y="18" width="3" height="3" /><rect x="13" y="18" width="3" height="3" /><rect x="18" y="18" width="3" height="3" /></svg>